<svg xmlns="http://www.w3.org/2000/svg" width="28.401" height="28.401" viewBox="0 0 28.401 28.401">
  <path id="Icon_awesome-plus" data-name="Icon awesome-plus" d="M26.372,13.407H17.243V4.279A2.029,2.029,0,0,0,15.215,2.25H13.186a2.029,2.029,0,0,0-2.029,2.029v9.129H2.029A2.029,2.029,0,0,0,0,15.436v2.029a2.029,2.029,0,0,0,2.029,2.029h9.129v9.129a2.029,2.029,0,0,0,2.029,2.029h2.029a2.029,2.029,0,0,0,2.029-2.029V19.493h9.129A2.029,2.029,0,0,0,28.4,17.465V15.436A2.029,2.029,0,0,0,26.372,13.407Z" transform="translate(0 -2.25)" fill="#13553f"/>
</svg>
