<svg xmlns="http://www.w3.org/2000/svg" width="28.401" height="28.401"><path id="Icon_awesome-plus" data-name="Icon awesome-plus" d="M26.372 13.407h-9.129V4.279a2.029 2.029 0 0 0-2.028-2.029h-2.029a2.029 2.029 0 0 0-2.029 2.029v9.129H2.029A2.029 2.029 0 0 0 0 15.436v2.029a2.029 2.029 0 0 0 2.029 2.029h9.129v9.129a2.029 2.029 0 0 0 2.029 2.029h2.029a2.029 2.029 0 0 0 2.029-2.029v-9.13h9.129a2.029 2.029 0 0 0 2.026-2.028v-2.029a2.029 2.029 0 0 0-2.028-2.029Z" transform="translate(0 -2.25)" fill="#13553f"/></svg>