<svg xmlns="http://www.w3.org/2000/svg" width="14.661" height="19.06" viewBox="0 0 14.661 19.06">
  <path id="Icon_ionic-ios-lock" data-name="Icon ionic-ios-lock" d="M19.579,9.972h-1.1V7.833a4.4,4.4,0,1,0-8.8-.06v2.2h-1.1A1.838,1.838,0,0,0,6.75,11.805v8.8a1.838,1.838,0,0,0,1.833,1.833h11A1.838,1.838,0,0,0,21.411,20.6v-8.8A1.838,1.838,0,0,0,19.579,9.972ZM14.722,15.69v3.152a.657.657,0,0,1-.609.66.642.642,0,0,1-.674-.641V15.69a1.466,1.466,0,1,1,1.283,0ZM17.2,9.972H10.965v-2.2a3.116,3.116,0,0,1,6.231,0Z" transform="translate(-6.75 -3.374)" fill="#13553f"/>
</svg>
